<svg id="delete" width="24" height="24" viewBox="0 0 24 24" fill="none" xmlns="http://www.w3.org/2000/svg">
    <path d="M18.9376 8H5.06238V19C5.06238 20.6569 6.39356 22 8.03565 22H15.9644C17.6064 22 18.9376 20.6569 18.9376 19V8Z" fill="#CDCDD0" />
    <path d="M10.0178 12C9.47046 12 9.02673 12.4477 9.02673 13V17C9.02673 17.5523 9.47046 18 10.0178 18C10.5652 18 11.0089 17.5523 11.0089 17V13C11.0089 12.4477 10.5652 12 10.0178 12Z" fill="#040415" />
    <path d="M13.9822 12C13.4348 12 12.9911 12.4477 12.9911 13V17C12.9911 17.5523 13.4348 18 13.9822 18C14.5295 18 14.9733 17.5523 14.9733 17V13C14.9733 12.4477 14.5295 12 13.9822 12Z" fill="#040415" />
    <path fill-rule="evenodd" clip-rule="evenodd" d="M8.03565 6V5C8.03565 3.34315 9.36682 2 11.0089 2H12.9911C14.6332 2 15.9644 3.34315 15.9644 5V6H18.9376C19.485 6 19.9287 6.44772 19.9287 7C19.9287 7.55228 19.485 8 18.9376 8H5.06238C4.51501 8 4.07129 7.55228 4.07129 7C4.07129 6.44772 4.51501 6 5.06238 6H8.03565ZM10.0178 5C10.0178 4.44772 10.4615 4 11.0089 4H12.9911C13.5385 4 13.9822 4.44772 13.9822 5V6H10.0178V5Z" fill="#040415" />
</svg>